# xmcd
#
# Track frame offsets: 
#        150
#        20037
#        40337
#        63525
#        78512
#        94875
#        114350
#        136387
#        160425
#        176787
#
# Disc length: 2565 seconds
#
# Revision: 6
# Processed by: cddbd v1.5.2PL0 Copyright (c) Steve Scherf et al.
# Submitted via: ExactAudioCopy v0.99pb4
#
DISCID=8a0a030a
DTITLE=潘麗麗 - 畫眉
DYEAR=1994
DGENRE=Vocal
TTITLE0=畫眉
TTITLE1=風雲飛過全台灣的厝頂
TTITLE2=山路
TTITLE3=胭脂水粉
TTITLE4=倒一杯酒來甲汝照顧
TTITLE5=大漢汝落知
TTITLE6=思念二千公尺
TTITLE7=逐暝\一通電話
TTITLE8=人生露水
TTITLE9=等待冬天
EXTD=ID3G: 2
EXTT0=
EXTT1=
EXTT2=
EXTT3=
EXTT4=
EXTT5=
EXTT6=
EXTT7=
EXTT8=
EXTT9=
PLAYORDER=
